<?xml version="1.0" encoding="utf-8"?>

<svg xmlns="http://www.w3.org/2000/svg" xmlns:xlink="http://www.w3.org/1999/xlink">

	<symbol viewBox="0 0 512 512" id="arrow-l" xmlns="http://www.w3.org/2000/svg">
		<path d="M379.644 477.872l-207.299-207.73c-7.798-7.798-7.798-20.486.015-28.299L379.643 34.128c7.803-7.819 7.789-20.482-.029-28.284-7.819-7.803-20.482-7.79-28.284.029L144.061 213.574c-23.394 23.394-23.394 61.459-.015 84.838L351.33 506.127A19.936 19.936 0 00365.487 512a19.94 19.94 0 0014.128-5.844c7.818-7.802 7.831-20.465.029-28.284z"/>
	</symbol>

	<symbol viewBox="0 0 512 512" id="arrow-r" xmlns="http://www.w3.org/2000/svg">
		<path d="M367.954 213.588L160.67 5.872c-7.804-7.819-20.467-7.831-28.284-.029-7.819 7.802-7.832 20.465-.03 28.284l207.299 207.731c7.798 7.798 7.798 20.486-.015 28.299L132.356 477.873c-7.802 7.819-7.789 20.482.03 28.284A19.935 19.935 0 00146.513 512c5.125 0 10.25-1.958 14.157-5.873l207.269-207.701c23.394-23.394 23.394-61.459.015-84.838z"/>
	</symbol>

	<symbol viewBox="0 0 14 12" id="backet" xmlns="http://www.w3.org/2000/svg">
		<path d="M13.403 3.688H11.87L8.414.176a.61.61 0 00-.824-.03.523.523 0 00-.034.772l2.727 2.77h-6.38l2.755-2.639a.523.523 0 00-.01-.773.611.611 0 00-.824.008L2.27 3.688H.721c-.393 0-.721.47-.721.838v1.335c0 .369.328.67.721.67h.171l1.336 5.017c.059.29.35.452.65.452h8.368c.301 0 .592-.161.65-.452l1.337-5.016h.17c.393 0 .597-.302.597-.671V4.526c0-.369-.204-.838-.597-.838zM4.27 10.25h-.7c-.128 0-.25-.15-.273-.255l-.51-2.367c-.029-.138.068-.222.218-.222h.81c.15 0 .288.052.308.19l.35 2.43c.016.105-.075.224-.204.224zm2.095 0h-.698c-.129 0-.24-.15-.251-.255l-.223-2.367c-.013-.138.098-.222.247-.222h.812c.149 0 .273.052.277.19l.064 2.43a.236.236 0 01-.228.224zm2.346-.255c-.01.106-.122.255-.25.255h-.7c-.128 0-.23-.15-.227-.255l.063-2.367c.005-.138.128-.222.278-.222h.812c.149 0 .26.084.247.222L8.71 9.995zm2.117 0c-.022.106-.145.255-.273.255h-.698c-.129 0-.22-.15-.205-.255L10 7.628c.02-.138.158-.222.308-.222h.811c.15 0 .247.084.217.222l-.51 2.367z"/>
	</symbol>

	<symbol viewBox="-3 0 33 22" id="card-heart" xmlns="http://www.w3.org/2000/svg">
		<path d="M24.908 1.988c-2.759-2.633-7.31-2.633-10.069 0l-1.35 1.29-1.35-1.29C10.759.672 8.909 0 7.089 0A7.272 7.272 0 002.07 1.988c-2.76 2.632-2.76 6.85 0 9.482l10.774 10.288c.323.323.94.323 1.262 0L24.909 11.47c2.79-2.632 2.79-6.85 0-9.482z"/>
	</symbol>

	<symbol viewBox="0 0 15 12" id="heart" xmlns="http://www.w3.org/2000/svg">
		<path fill-rule="evenodd" clip-rule="evenodd" d="M12.813 2.179c-.957-.896-2.587-.896-3.543 0L7.494 3.844 5.718 2.179c-.466-.437-1.117-.679-1.78-.679a2.58 2.58 0 00-1.763.679c-.9.843-.9 2.14 0 2.983l5.312 4.98 5.331-4.986c.91-.842.91-2.13 0-2.972l-.005-.005zm-5.32-.391l.751-.704c1.533-1.436 4.061-1.436 5.594 0 1.55 1.436 1.55 3.737 0 5.172L10.84 9.06l-3.004 2.808a.532.532 0 01-.7 0L1.15 6.256c-1.533-1.435-1.533-3.736 0-5.172A4.08 4.08 0 013.939 0c1.01 0 2.038.366 2.805 1.084l.75.704z"/>
	</symbol>

	<symbol viewBox="0 0 30 30" id="inst" xmlns="http://www.w3.org/2000/svg">
		<path fill-rule="evenodd" clip-rule="evenodd" d="M15 30c8.284 0 15-6.716 15-15 0-8.284-6.716-15-15-15C6.716 0 0 6.716 0 15c0 8.284 6.716 15 15 15zm7.25-24.75c.685 0 1.273.245 1.764.736.49.491.736 1.08.736 1.765v14.498c0 .685-.245 1.274-.736 1.765-.491.49-1.08.736-1.765.736H7.751a2.408 2.408 0 01-1.765-.736 2.407 2.407 0 01-.736-1.765V7.751c0-.686.245-1.274.736-1.765a2.407 2.407 0 011.765-.736H22.25zm-7.237 5.916c-1.075 0-1.995.37-2.761 1.11-.766.741-1.15 1.636-1.15 2.686s.384 1.944 1.15 2.685c.766.74 1.686 1.11 2.76 1.11 1.084 0 2.009-.37 2.775-1.11.766-.74 1.149-1.636 1.149-2.685 0-1.05-.383-1.945-1.15-2.685-.765-.74-1.69-1.111-2.773-1.111zm7.3 11.115a.74.74 0 00.228-.552v-8.227h-1.714c.17.533.254 1.088.254 1.663 0 1.066-.27 2.05-.812 2.952a5.928 5.928 0 01-2.209 2.14 6.102 6.102 0 01-3.047.786c-1.667 0-3.094-.573-4.278-1.72-1.185-1.147-1.778-2.533-1.778-4.158 0-.575.085-1.13.254-1.663h-1.79v8.227c0 .22.074.404.222.552a.75.75 0 00.552.222h13.572a.757.757 0 00.546-.222zm-.026-11.267a.845.845 0 00.254-.622V8.296a.852.852 0 00-.254-.616.835.835 0 00-.622-.26h-2.209a.836.836 0 00-.622.26.852.852 0 00-.254.616v2.095c0 .245.085.452.254.622.17.169.377.254.622.254h2.21a.845.845 0 00.621-.255z"/>
	</symbol>

	<symbol viewBox="0 0 184 40" id="logo" xmlns="http://www.w3.org/2000/svg">
		<path d="M7.37 23.241v6c0 .242.068.449.17.587.102.137.307.241.614.31v.38H2.968v-.38c.273-.069.478-.173.614-.31.103-.138.171-.31.171-.587V15.172a.994.994 0 00-.17-.586c-.103-.138-.308-.241-.615-.31v-.38h14.603c.239 0 .443-.068.546-.172.136-.103.239-.31.307-.62h.375v4.31h-.375c-.068-.31-.17-.517-.307-.62a.862.862 0 00-.546-.173H7.335v3.965h6.688a.969.969 0 00.58-.172c.136-.104.238-.31.307-.62h.375V24h-.375c-.069-.276-.17-.483-.307-.62-.137-.104-.307-.173-.58-.173H7.37v.034zm19.583 0v4.552h10.611c.24 0 .444-.069.546-.172.137-.104.239-.31.307-.621h.375v4.31h-.375c-.068-.275-.17-.482-.307-.62a.861.861 0 00-.546-.173H22.586v-.38c.273-.068.478-.172.614-.31.103-.137.171-.31.171-.586V15.172a.993.993 0 00-.17-.586c-.103-.138-.308-.241-.615-.31v-.38h14.705c.24 0 .444-.068.546-.172.137-.103.239-.31.307-.62h.376v4.31h-.376c-.068-.276-.17-.483-.307-.62a.862.862 0 00-.546-.173H26.953v3.965h6.688c.239 0 .443-.069.546-.172.136-.104.238-.31.307-.62h.375V24h-.375c-.069-.276-.171-.483-.307-.62a.862.862 0 00-.546-.173h-6.688v.034zm24.702-6.621v12.656c0 .241.068.448.17.586.103.138.308.242.615.31v.38h-5.152v-.38c.273-.069.478-.172.614-.31.102-.138.17-.31.17-.586V16.62h-5.117c-.239 0-.444.069-.546.172-.136.104-.239.31-.307.62h-.375v-4.31h.375c.102.31.205.518.307.621a.861.861 0 00.546.173h13.818a.968.968 0 00.58-.173c.136-.103.239-.31.307-.62h.375v4.31h-.375c-.068-.31-.17-.517-.307-.62-.137-.104-.307-.173-.58-.173h-5.118zm10.952 12.656V15.138c0-.242-.068-.448-.17-.552-.103-.138-.307-.241-.615-.31v-.38h5.152v.38c-.273.069-.477.172-.614.31a.884.884 0 00-.17.552V29.24c0 .242.068.449.17.587.103.137.307.241.614.31v.38h-5.152v-.38c.273-.069.478-.173.614-.31.103-.104.171-.31.171-.552zm36.95-23.069l-3.139 6.276-.546-.31c0-.139.034-.242.034-.311 0-.448-.375-.931-1.126-1.414-2.285-1.62-4.98-2.414-8.051-2.414-1.365 0-2.56.173-3.617.518-.75.276-1.365.655-1.842 1.172-.478.517-.717 1.07-.717 1.69 0 1 .614 1.69 1.809 2.034.614.173 1.944.38 3.957.586l3.037.31c1.808.208 3.241.45 4.367.794a11.29 11.29 0 012.968 1.414c.887.62 1.57 1.483 2.081 2.517.512 1.034.751 2.138.751 3.345 0 1.862-.614 3.517-1.808 5-1.092 1.31-2.764 2.31-5.016 2.93-1.706.484-3.514.725-5.459.725-3.48 0-6.926-.828-10.303-2.517-.717-.345-1.16-.517-1.297-.517-.17 0-.443.137-.784.413l-.546-.276 2.865-6.517.546.276v.241c0 .587.273 1.138.82 1.621.818.759 2.115 1.414 3.889 1.966 1.74.551 3.412.827 4.981.827 1.706 0 3.173-.276 4.367-.862a4.04 4.04 0 001.604-1.31c.41-.552.614-1.104.614-1.69 0-.896-.478-1.517-1.399-1.896-.648-.276-1.979-.483-3.958-.725l-2.968-.31c-1.979-.207-3.412-.414-4.23-.586-.82-.172-1.638-.483-2.457-.897a6.553 6.553 0 01-2.764-2.62c-.614-1.07-.921-2.276-.921-3.621 0-2.241.75-4.104 2.286-5.586 2.013-1.931 5.015-2.897 9.007-2.897 1.672 0 3.241.173 4.709.517 1.467.345 3.275.966 5.424 1.897.75.31 1.194.448 1.365.448.273 0 .58-.138.955-.448l.512.207zm29.717 12.724h-15.182v9.586c0 .38.102.69.273.897.17.207.511.38.955.482v.621h-8.189v-.62c.478-.138.785-.31.956-.518.17-.207.273-.517.273-.896V5.966c0-.38-.103-.69-.273-.897-.171-.207-.512-.38-.956-.517V3.93h8.189v.62c-.478.104-.785.277-.955.483-.171.207-.273.518-.273.897v8.586h15.182v-8.55c0-.38-.102-.69-.273-.897-.17-.207-.511-.38-.955-.483v-.62h8.223v.62c-.478.138-.785.31-.956.517-.17.207-.273.518-.273.897v22.552c0 .379.103.69.273.896.171.207.512.38.956.517v.621h-8.223v-.62c.444-.104.785-.276.955-.483.171-.207.273-.518.273-.897v-9.655zm40.021 4.862v5.483c0 .241.068.448.171.552.102.137.307.241.614.31v.38h-5.152v-.38c.273-.069.478-.173.614-.31a.886.886 0 00.171-.552V15.172a.996.996 0 00-.171-.586c-.102-.138-.307-.241-.614-.31v-.38h10.304c1.194 0 2.149.07 2.865.242a5.475 5.475 0 011.877.828 4.31 4.31 0 011.296 1.62c.308.69.478 1.449.478 2.207 0 1.138-.307 2.104-.887 2.966a4.205 4.205 0 01-2.047 1.551c-.853.31-2.047.449-3.548.449h-5.971v.034zm0-2.758h5.493c1.092 0 1.877-.104 2.32-.345.273-.138.512-.414.682-.725a2.5 2.5 0 00.273-1.103c0-.414-.102-.759-.273-1.103-.17-.345-.409-.587-.682-.724-.443-.242-1.194-.345-2.32-.345h-5.493v4.345zm-12.112 10.517c-1.228-.173-2.764-.104-3.787-.07-.512.035-.921.035-1.058.035-.034 0-.034 0-.068-.034-.068-.104-.034-.38.034-.69 3.241-.241 5.63-1.586 7.131-4 .853-1.38 1.296-2.862 1.296-4.483 0-1.896-.477-3.551-1.433-4.965.512-1.414.137-3.483-.341-5.897-.648 1.345-1.535 2.655-2.183 3.518-1.502-.932-3.344-1.38-5.562-1.38-2.183.035-4.026.483-5.493 1.38-.614-.863-1.535-2.173-2.149-3.483-.444 2.413-.819 4.448-.341 5.862-.069.103-.137.207-.205.276-.853 1.379-1.263 2.896-1.263 4.586 0 1.138.205 2.241.615 3.276a8.348 8.348 0 002.047 3c1.569 1.448 3.65 2.241 6.209 2.345-.102.448-.136.862.068 1.207.171.31.478.517.99.62.785.207 1.945.173 3.173.173 1.774 0 3.787-.035 4.265.69.136.24.136.55-.034.965-.069.172-.171.31-.307.345-.308.103-.785-.173-1.331-.518-.648-.379-1.365-.793-2.15-.862-1.603 0-2.354.483-3.036 2.07-.171-.277-.41-.828-.512-1.828 0 0 0-.138-.068-.173-.068-.034-.137.07-.137.07-.648.516-1.262 2.275-1.398 4.758v.172l.682-.069c1.604-.172 2.388-.551 4.504-1.586 0 0 .136-.138.102-.207-.034-.069-.171-.069-.171-.069-.273.035-1.364-.207-1.876-.345.17-.413.716-1.62 1.603-1.517.615.07 1.229.38 1.843.69.853.414 1.672.827 2.388.551.444-.172.785-.551 1.092-1.172.273-.62.307-1.172.034-1.655-.546-1.07-2.218-1.448-3.173-1.586zm-11.737-9.345c0-1.793.614-3.276 1.877-4.38 1.057-.93 2.354-1.413 3.923-1.413 1.604 0 2.9.482 3.958 1.414 1.228 1.069 1.877 2.551 1.877 4.448a5.71 5.71 0 01-.444 2.241c-.341.828-.819 1.518-1.433 2.07-1.023.93-2.354 1.413-3.958 1.413-1.603 0-2.9-.483-3.957-1.414-1.229-1.103-1.843-2.551-1.843-4.38z"/>
	</symbol>

	<symbol viewBox="0 0 30 30" id="pinterest" xmlns="http://www.w3.org/2000/svg">
		<path d="M15 0C6.716 0 0 6.716 0 15c0 8.284 6.716 15 15 15 8.284 0 15-6.716 15-15 0-8.284-6.716-15-15-15zm1.726 19.982c-1.387 0-2.692-.75-3.14-1.601 0 0-.746 2.96-.902 3.53-.557 2.02-2.194 4.04-2.321 4.206-.089.115-.285.079-.305-.074-.035-.257-.453-2.805.039-4.883l1.652-7.001s-.41-.82-.41-2.034c0-1.904 1.104-3.325 2.479-3.325 1.168 0 1.732.877 1.732 1.929 0 1.175-.748 2.931-1.133 4.56-.323 1.362.682 2.474 2.027 2.474 2.434 0 4.073-3.127 4.073-6.832 0-2.815-1.895-4.924-5.346-4.924-3.896 0-6.327 2.907-6.327 6.154 0 1.12.331 1.91.849 2.52.237.28.27.394.184.716-.062.236-.202.806-.262 1.03-.085.326-.349.442-.644.322-1.794-.732-2.63-2.698-2.63-4.908 0-3.65 3.078-8.027 9.183-8.027 4.906 0 8.135 3.55 8.135 7.36 0 5.043-2.803 8.808-6.933 8.808z"/>
	</symbol>

	<symbol viewBox="0 0 12 12" id="search" xmlns="http://www.w3.org/2000/svg">
		<path d="M4.9 9.709a4.93 4.93 0 002.85-.91l3.02 2.993c.14.139.325.208.516.208a.7.7 0 00.714-.72.692.692 0 00-.204-.505l-3.002-2.98a4.806 4.806 0 001.007-2.94C9.801 2.184 7.596 0 4.901 0 2.199 0 0 2.184 0 4.854S2.199 9.71 4.9 9.71zm0-1.048c-2.109 0-3.842-1.724-3.842-3.807S2.79 1.048 4.9 1.048c2.103 0 3.842 1.723 3.842 3.806S7.002 8.661 4.9 8.661z"/>
	</symbol>

	<symbol viewBox="0 0 58 30" id="services-1" xmlns="http://www.w3.org/2000/svg">
		<path d="M13.187 16.855H.367c-.184 0-.367.189-.367.378v2.264c0 .189.183.377.366.377h12.821c.184 0 .367-.188.367-.377v-2.264c0-.189-.184-.378-.367-.378zm0-6.037H4.09c-.183 0-.366.188-.366.377v2.264c0 .189.183.377.366.377h9.097c.184 0 .367-.188.367-.377v-2.264a.357.357 0 00-.367-.377zm0-6.101H7.754c-.184 0-.367.189-.367.377v2.264c0 .19.183.378.367.378h5.433c.184 0 .367-.189.367-.378V5.094c0-.188-.184-.377-.367-.377zm44.263 9.874l-2.686-8.365c-.244-.754-.977-1.32-1.77-1.32H44.69V.88c0-.504-.367-.881-.794-.881H17.644c-.427 0-.793.377-.793.88v22.894c0 .44.366.817.793.817h4.03c0 3.02 2.38 5.409 5.25 5.409s5.25-2.453 5.25-5.409h10.44c0 3.02 2.382 5.409 5.251 5.409 2.87 0 5.25-2.453 5.25-5.409h3.97c.488 0 .915-.44.915-.943v-5.409c0-1.258-.183-2.453-.55-3.648zM26.924 27.17c-1.343 0-2.503-1.132-2.503-2.579 0-1.384 1.099-2.578 2.503-2.578 1.343 0 2.503 1.132 2.503 2.578 0 1.447-1.099 2.579-2.503 2.579zm21.002 0c-1.343 0-2.503-1.132-2.503-2.579 0-1.384 1.1-2.578 2.503-2.578 1.404 0 2.442 1.194 2.442 2.578 0 1.447-1.099 2.579-2.442 2.579zm5.74-13.648h-8.182c-.427 0-.732-.315-.732-.755V8.553c0-.44.305-.754.732-.754h6.289c.305 0 .61.188.732.503l1.527 4.717c.06.251-.122.503-.367.503z"/>
	</symbol>

	<symbol viewBox="0 0 34 34" id="services-2" xmlns="http://www.w3.org/2000/svg">
		<path d="M1.901 11.873l-.015.05.017-.05H1.9zm12.64-1.885l-3.217-8.254a16.255 16.255 0 00-9.421 10.14l8.38 2.896a7.373 7.373 0 014.258-4.782zm5.351-.11a7.375 7.375 0 014.455 4.612l8.262-3.22a16.255 16.255 0 00-9.823-9.765l-2.893 8.372zm12.656 12.586a16.017 16.017 0 00-.001 0h.001zm-8.378-2.9a7.375 7.375 0 01-4.287 4.134l3.218 8.254a16.26 16.26 0 009.446-9.488l-8.379-2.896.002-.004zm-13.513.26zm0 0l-8.261 3.22a16.26 16.26 0 009.797 9.114l2.894-8.374a7.375 7.375 0 01-4.43-3.96zm1.535 12.336l.047.014-.046-.016v.002zm-9.796-9.115l-.004-.01.004.01z"/>
		<path d="M31.143 17c0 3.778-1.471 7.33-4.142 10A14.05 14.05 0 0117 31.144 14.05 14.05 0 017 27a14.051 14.051 0 01-4.144-10C2.857 9.202 9.201 2.857 17 2.857c7.798 0 14.143 6.345 14.143 14.143zM17 0C7.626 0 0 7.626 0 17c0 4.541 1.768 8.81 4.98 12.02A16.879 16.879 0 0017 34c4.541 0 8.81-1.768 12.02-4.98A16.889 16.889 0 0034 17c0-9.374-7.626-17-17-17z"/>
		<path d="M23 17.071a6.221 6.221 0 01-6.214 6.215 6.221 6.221 0 01-6.215-6.215 6.221 6.221 0 016.215-6.214A6.221 6.221 0 0123 17.071zM16.786 8c-5.002 0-9.072 4.07-9.072 9.071 0 5.002 4.07 9.071 9.072 9.071 5.002 0 9.071-4.069 9.071-9.07 0-5.003-4.07-9.072-9.071-9.072z"/>
	</symbol>

	<symbol viewBox="0 0 32 34" id="services-3" xmlns="http://www.w3.org/2000/svg">
		<path d="M10.024 34c1.29 0 2.334-1.018 2.334-2.275 0-1.256-1.045-2.275-2.334-2.275-1.288 0-2.333 1.019-2.333 2.275C7.69 32.982 8.736 34 10.024 34zm16.868 0c1.288 0 2.333-1.018 2.333-2.275 0-1.256-1.045-2.275-2.334-2.275-1.288 0-2.333 1.019-2.333 2.275 0 1.257 1.045 2.275 2.334 2.275zm4.593-24.77c-.459-.56-1.177-.882-1.969-.882h-3.278c-.511.848-1.456 1.342-2.64 1.342h-.272v6.512h-8.273V9.69h-.273c-1.183 0-2.128-.494-2.639-1.342H7.345C6.805 6.047 5.73 5.06 3.78 5.06H.954A.943.943 0 000 5.99c0 .514.428.93.954.93h2.827c.703 0 1.312 0 1.743 2.015.415 1.933 2.447 12.37 2.468 12.475.064.329.193.639.36.925-1.216.438-2.09 1.57-2.09 2.905 0 1.712 1.429 3.106 3.185 3.106h19.15a.943.943 0 00.955-.93.943.943 0 00-.954-.931H9.448c-.705 0-1.278-.558-1.278-1.245 0-.686.573-1.245 1.277-1.245h16.846c1.497 0 2.931-1.114 3.263-2.538L31.931 11.3c.175-.753.013-1.507-.446-2.068z"/>
		<path d="M14.781 7.83h2.182v6.512h4.454V7.831H23.6c1.05 0 1.414-.684.808-1.52l-.957-1.322c-.607-.835-1.597-2.204-2.202-3.04L20.29.627c-.605-.836-1.596-.836-2.202 0l-.957 1.322L14.93 4.99l-.957 1.321c-.605.836-.242 1.52.808 1.52z"/>
	</symbol>

	<symbol viewBox="0 0 28 34" id="services-4" xmlns="http://www.w3.org/2000/svg">
		<path d="M27.987 17.979V5.456c0-.437-.196-.835-.55-1.153a1.57 1.57 0 00-1.218-.397c-.59.08-1.258.12-1.847.12-5.62 0-9.275-3.539-9.315-3.579a1.483 1.483 0 00-2.122 0c0 .04-3.616 3.578-9.314 3.578-.59 0-1.258-.04-1.847-.12-.472-.039-.865.08-1.219.398-.354.318-.55.676-.55 1.153V17.98c-.04 1.034-.157 10.336 13.441 15.902.197.08.393.119.59.119.196 0 .393-.04.589-.12 13.559-5.605 13.441-14.867 13.362-15.901zm-5.03 7.315c0 2.186-2.044 3.975-4.56 3.975H9.595c-2.515 0-4.558-1.789-4.558-3.975V14.162c0-1.868 1.454-3.418 3.458-3.856V7.881c0-3.06 2.476-5.565 5.502-5.565s5.502 2.504 5.502 5.565v2.425c1.965.438 3.459 1.988 3.459 3.857v11.13z"/>
		<path d="M17.848 7.881c0-2.146-1.73-3.896-3.852-3.896s-3.851 1.75-3.851 3.896v2.306h7.742V7.881h-.04zm-7.743 17.333c.826.597 2.044.955 3.223 1.034V27.6h1.336v-1.431c2.044-.279 3.341-1.59 3.341-3.578 0-2.227-1.69-2.902-3.734-3.618-1.375-.517-2.554-.835-2.554-2.306 0-1.193.864-1.789 2.28-1.789.943 0 1.846.318 2.672.835.157.12.353.04.432-.12l.432-.914a.26.26 0 00-.078-.357 5.853 5.853 0 00-2.751-.954v-1.511h-1.337v1.51c-1.886.2-3.34 1.273-3.34 3.42 0 2.226 1.454 2.941 3.733 3.816 1.612.636 2.555.954 2.555 2.147 0 1.272-.983 1.987-2.476 1.987-1.1 0-2.083-.357-2.908-.874-.079-.08-.118-.12-.197-.12a.33.33 0 00-.275.16l-.471.914c-.04.159 0 .318.117.397z"/>
	</symbol>

	<symbol viewBox="0 0 20 19" id="star" xmlns="http://www.w3.org/2000/svg">
		<path d="M10 1.155l2.441 5.081.117.243.267.036 5.587.752-4.078 3.892-.195.186.048.265 1.012 5.546-4.962-2.676-.237-.128-.237.128L4.8 17.156l1.012-5.546.048-.265-.195-.186-4.078-3.892 5.587-.752.267-.036.117-.243L10 1.155z"/>
	</symbol>

	<symbol viewBox="0 0 10 12" id="user" xmlns="http://www.w3.org/2000/svg">
		<path d="M7.147 2.934C7.147 4.33 6.14 5.37 5 5.37c-1.139 0-2.147-1.04-2.147-2.435 0-.794.101-1.389.383-1.784C3.491.794 3.97.5 5 .5s1.51.294 1.764.65c.282.395.383.99.383 1.784zm2.847 7.296a25.527 25.527 0 00-.006-.3.504.504 0 00-.45.309l.456-.008zm0 0l-.456.009-.004.009a.5.5 0 00-.028.104.504.504 0 00-.004.03l-.001.019.06.002.002-.004a.192.192 0 00.008-.01l-.003.005-.003.006-.002.002.435.012a10.748 10.748 0 01-.004-.183zM6.597 6.628c1.387.247 2.03.548 2.375.98.373.466.498 1.198.522 2.632L6.597 6.627zm0 0c-.069.05-.154.106-.255.16-.304.164-.748.313-1.342.313-.594 0-1.037-.15-1.342-.313a2.13 2.13 0 01-.255-.16c-1.37.244-2.015.54-2.363.965-.372.453-.504 1.165-.533 2.557a10.866 10.866 0 01-.007.242v.079a2.293 2.293 0 00.615.401c.631.298 1.803.629 3.885.629s3.254-.331 3.885-.63a2.294 2.294 0 00.615-.4v-.014l-.002-.038a13.9 13.9 0 01-.004-.179L6.597 6.627zM.007 10.14a9.688 9.688 0 01-.005.203l.498-.009v-.003a.42.42 0 00-.013-.087.5.5 0 00-.024-.074l-.009-.02a.506.506 0 00-.44-.29l-.006.28z"/>
	</symbol>

	<symbol viewBox="0 0 30 30" id="youtube" xmlns="http://www.w3.org/2000/svg">
		<path d="M13.132 17.81L18.01 15l-4.88-2.81v5.62z"/>
		<path d="M15 0C6.717 0 0 6.717 0 15c0 8.283 6.717 15 15 15 8.283 0 15-6.717 15-15 0-8.283-6.717-15-15-15zm9.373 15.015s0 3.042-.386 4.51a2.349 2.349 0 01-1.652 1.651c-1.467.387-7.335.387-7.335.387s-5.852 0-7.335-.402a2.349 2.349 0 01-1.652-1.652C5.627 18.057 5.627 15 5.627 15s0-3.042.386-4.509a2.396 2.396 0 011.652-1.667C9.132 8.438 15 8.438 15 8.438s5.868 0 7.334.401c.803.216 1.436.85 1.653 1.652.401 1.467.386 4.524.386 4.524z"/>
	</symbol>

	<symbol viewBox="0 0 30 30" id="facebook" xmlns="http://www.w3.org/2000/svg">
		<path d="M15 0C6.716 0 0 6.716 0 15c0 8.284 6.716 15 15 15 8.284 0 15-6.716 15-15 0-8.284-6.716-15-15-15zm3.553 10.366h-2.255c-.267 0-.564.351-.564.818v1.629h2.82l-.426 2.321h-2.394v6.97h-2.66v-6.97h-2.415v-2.322h2.414v-1.365c0-1.96 1.36-3.552 3.225-3.552h2.255v2.47z"/>
	</symbol>

	<symbol viewBox="0 0 30 30" id="google" xmlns="http://www.w3.org/2000/svg">
		<path d="M29.7083 12.0623H28.5V12H15V18H23.4773C22.2405 21.4928 18.9172 24 15 24C10.0297 24 6 19.9702 6 15C6 10.0297 10.0297 6 15 6C17.2943 6 19.3815 6.8655 20.9708 8.27925L25.2135 4.0365C22.5345 1.53975 18.951 0 15 0C6.71625 0 0 6.71625 0 15C0 23.2838 6.71625 30 15 30C23.2838 30 30 23.2838 30 15C30 13.9943 29.8965 13.0125 29.7083 12.0623Z" fill="#FFC107"/>
		<path d="M1.72925 8.01824L6.6575 11.6325C7.991 8.33099 11.2205 5.99999 14.9997 5.99999C17.294 5.99999 19.3813 6.86549 20.9705 8.27924L25.2132 4.03649C22.5343 1.53974 18.9508 -1.14441e-05 14.9997 -1.14441e-05C9.23825 -1.14441e-05 4.24175 3.25274 1.72925 8.01824Z" fill="#FF3D00"/>
		<path d="M15 30C18.8745 30 22.395 28.5172 25.0567 26.106L20.4142 22.1775C18.8576 23.3613 16.9556 24.0015 15 24C11.0985 24 7.78574 21.5122 6.53774 18.0405L1.64624 21.8092C4.12874 26.667 9.17024 30 15 30Z" fill="#4CAF50"/>
		<path d="M29.7083 12.0622H28.5V12H15V18H23.4773C22.8857 19.6623 21.82 21.1149 20.412 22.1782L20.4142 22.1767L25.0568 26.1052C24.7283 26.4037 30 22.5 30 15C30 13.9942 29.8965 13.0125 29.7083 12.0622Z" fill="#1976D2"/>
	</symbol>

	<symbol viewBox="0 0 38 35" id="user-com" xmlns="http://www.w3.org/2000/svg">
		<path d="M9.064 3.932c-.7.442-1.415-.557-.715-.999C11.443.993 14.965 0 18.689 0 29.01 0 37.38 7.836 37.38 17.5S29.01 35 18.689 35C8.37 35 0 27.164 0 17.5c0-3.483 1.11-6.898 3.19-9.784.476-.655 1.543.018 1.068.674-1.95 2.705-2.97 5.848-2.97 9.11 0 8.998 7.792 16.294 17.401 16.294 9.61 0 17.402-7.296 17.402-16.294 0-8.998-7.792-16.294-17.402-16.294-3.46 0-6.748.923-9.625 2.726zm1.81 19.593c0-2.802 2.247-4.946 4.927-5.8-1.632-.942-2.634-2.6-2.634-4.404 0-2.853 2.479-5.17 5.522-5.17 3.044 0 5.522 2.317 5.522 5.17 0 1.804-1.001 3.462-2.633 4.403 2.691.859 4.927 3.013 4.927 5.801 0 2.796-5.492 3.324-7.816 3.324s-7.815-.528-7.815-3.324zM18.69 9.357c-2.34 0-4.23 1.77-4.23 3.964 0 2.191 1.89 3.962 4.23 3.962 2.34 0 4.23-1.77 4.23-3.962 0-2.194-1.89-3.964-4.23-3.964zm-6.523 14.168c0 1.76 5.007 2.115 6.523 2.115s6.524-.355 6.524-2.115c0-3.16-3.453-5.033-6.524-5.033-3.04 0-6.523 1.85-6.523 5.033z"/>
	</symbol>

	<symbol viewBox="0 0 36 28" id="single-heart" xmlns="http://www.w3.org/2000/svg">
		<path d="M30.672 3.25l.004.003c3.099 2.957 3.099 7.665 0 10.622l-.003.003-6.798 6.543-6.806 6.55-.008.009-.003.003a.233.233 0 01-.09.017.233.233 0 01-.09-.017l-.003-.003-.008-.007L3.301 13.879C.232 10.92.232 6.206 3.3 3.248A8.103 8.103 0 018.926 1c2.051 0 4.126.766 5.665 2.25l1.7 1.64.694.67.695-.67 1.7-1.64c3.087-2.977 8.204-2.977 11.291 0z"/>
	</symbol>

	<symbol viewBox="0 0 32 32" id="viber" xmlns="http://www.w3.org/2000/svg">
		<circle cx="16" cy="16" r="16" fill="#7D3DAF"/>
		<path d="M11.6254 25.9945C11.5179 25.9945 11.4062 25.973 11.3031 25.9258C11.0066 25.7969 10.8176 25.5047 10.8176 25.1824C10.8176 24.8215 10.7832 24.1383 10.7531 23.5367C10.7359 23.1844 10.7187 22.8621 10.7101 22.6086C9.47693 22.166 8.50583 21.4227 7.83122 20.3957C7.22966 19.4848 6.86443 18.4234 6.71404 17.1516C6.43904 14.8313 6.53357 12.7859 6.99763 10.8953C7.49177 8.85859 8.73786 7.46641 10.6929 6.75742C12.1324 6.2375 13.6793 6.00547 15.7074 6.00547C16.1672 6.00547 16.6699 6.01836 17.2929 6.03985C18.539 6.08711 19.566 6.2375 20.5285 6.5125C21.6801 6.83906 22.8789 7.24297 23.7726 8.29141C24.3355 8.94883 24.7394 9.76094 25.0058 10.7664C25.4398 12.4121 25.5515 14.2297 25.3496 16.4813C25.2679 17.3879 25.1605 18.3547 24.7996 19.2914C24.1207 21.0789 22.7801 22.2348 20.8207 22.7289C19.1793 23.1457 17.4605 23.3563 15.7117 23.3563C15.4582 23.3563 15.2004 23.352 14.9426 23.3434C14.934 23.352 14.9211 23.3648 14.9082 23.382C14.8953 23.3949 14.8824 23.4078 14.8695 23.4207C14.0445 24.2113 12.8156 25.2426 12.3515 25.6336C12.2613 25.7109 12.1968 25.7625 12.1754 25.784C12.0164 25.9215 11.823 25.9945 11.6254 25.9945ZM15.7074 7.62539C13.8769 7.62539 12.4976 7.82735 11.2472 8.28281C9.81208 8.80274 8.93552 9.78242 8.57029 11.282C8.15349 12.9793 8.07185 14.8398 8.32536 16.9625C8.44568 17.9766 8.72497 18.8102 9.18474 19.5063C9.70036 20.2883 10.4351 20.8254 11.4277 21.1434C12.1668 21.3797 12.3258 21.8824 12.3258 22.2605C12.3258 22.4711 12.3515 22.9523 12.373 23.4594C12.373 23.468 12.373 23.4809 12.373 23.4895C12.8285 23.0984 13.3269 22.6559 13.7222 22.2777C13.8941 22.093 14.2679 21.7063 14.9211 21.7277C15.1832 21.7363 15.4453 21.7406 15.7031 21.7406C17.3144 21.7406 18.9 21.5473 20.4125 21.1648C21.8691 20.7953 22.7801 20.0176 23.2742 18.7199C23.5578 17.9723 23.648 17.1688 23.7254 16.3395C23.9144 14.2512 23.8199 12.6613 23.4289 11.1832C23.2269 10.4184 22.9347 9.8168 22.5308 9.34844C21.9293 8.64375 21.0269 8.34297 20.0773 8.07656C19.2437 7.84024 18.3371 7.71133 17.2199 7.66406C16.6269 7.63828 16.1457 7.62539 15.7074 7.62539Z" fill="white"/>
		<path d="M20.2153 18.1141C20.1465 18.7414 19.7985 19.0938 19.4547 19.4289C19.068 19.807 18.6039 20.0305 18.0496 19.8113C17.6243 19.6395 17.2075 19.4461 16.7993 19.2398C15.5145 18.5953 14.3887 17.7316 13.4176 16.6789C12.266 15.4285 11.3637 14.0234 10.8352 12.3949C10.6977 11.9695 10.7707 11.5914 11.1059 11.2992C11.4153 11.0328 11.7418 10.7793 12.0856 10.5602C12.3348 10.4055 12.6356 10.4184 12.8633 10.6203C13.495 11.1832 14.0149 11.8449 14.35 12.627C14.4617 12.8934 14.4403 13.1727 14.1782 13.3789C14.0492 13.4777 13.9289 13.5895 13.8043 13.6926C13.4606 13.9762 13.4047 14.1738 13.5465 14.5949C13.8602 15.5531 14.5305 16.2148 15.3426 16.752C15.6176 16.9324 15.9356 17.0484 16.245 17.1645C16.5071 17.2633 16.7305 17.1559 16.8981 16.9367C16.9883 16.825 17.0743 16.709 17.1645 16.5973C17.4223 16.2836 17.8778 16.1805 18.2172 16.4039C18.8102 16.7992 19.3946 17.216 19.9618 17.6543C20.1078 17.7703 20.1594 18.0023 20.2153 18.1141Z" fill="white"/>
		<path d="M21.0652 15.4113C20.8418 15.4113 20.6613 15.2309 20.6613 15.0074C20.6613 12.2016 18.3797 9.91993 15.5738 9.91993C15.3504 9.91993 15.1699 9.73946 15.1699 9.51602C15.1699 9.29258 15.3504 9.11211 15.5738 9.11211C18.8266 9.11211 21.4734 11.759 21.4734 15.0117C21.4734 15.2309 21.293 15.4113 21.0652 15.4113Z" fill="white"/>
		<path d="M19.5699 15.4113C19.3465 15.4113 19.166 15.2309 19.166 15.0074C19.166 13.0266 17.5547 11.4152 15.5738 11.4152C15.3504 11.4152 15.1699 11.2348 15.1699 11.0113C15.1699 10.7879 15.3504 10.6074 15.5738 10.6074C18.0016 10.6074 19.9738 12.5797 19.9738 15.0074C19.9738 15.2309 19.7934 15.4113 19.5699 15.4113Z" fill="white"/>
		<path d="M18.0703 15.4113C17.8469 15.4113 17.6664 15.2309 17.6664 15.0074C17.6664 13.8559 16.7297 12.9148 15.5738 12.9148C15.3504 12.9148 15.1699 12.7344 15.1699 12.5109C15.1699 12.2875 15.3504 12.107 15.5738 12.107C17.1723 12.107 18.4742 13.409 18.4742 15.0074C18.4742 15.2309 18.2937 15.4113 18.0703 15.4113Z" fill="white"/>
	</symbol>

	<symbol viewBox="0 0 32 32" id="whatsapp" xmlns="http://www.w3.org/2000/svg">
		<path d="M16.004 0H15.996C7.174 0 0 7.176 0 16C0 19.5 1.128 22.744 3.046 25.378L1.052 31.322L7.202 29.356C9.732 31.032 12.75 32 16.004 32C24.826 32 32 24.822 32 16C32 7.178 24.826 0 16.004 0Z" fill="#4CAF50"/>
		<path d="M25.3131 22.594C24.9271 23.684 23.3951 24.588 22.1731 24.852C21.3371 25.03 20.2451 25.172 16.5691 23.648C11.8671 21.7 8.83913 16.922 8.60313 16.612C8.37713 16.302 6.70312 14.082 6.70312 11.786C6.70312 9.48999 7.86913 8.37199 8.33913 7.89199C8.72513 7.49799 9.36312 7.31799 9.97512 7.31799C10.1731 7.31799 10.3511 7.32799 10.5111 7.33599C10.9811 7.35599 11.2171 7.38399 11.5271 8.12599C11.9131 9.05599 12.8531 11.352 12.9651 11.588C13.0791 11.824 13.1931 12.144 13.0331 12.454C12.8831 12.774 12.7511 12.916 12.5151 13.188C12.2791 13.46 12.0551 13.668 11.8191 13.96C11.6031 14.214 11.3591 14.486 11.6311 14.956C11.9031 15.416 12.8431 16.95 14.2271 18.182C16.0131 19.772 17.4611 20.28 17.9791 20.496C18.3651 20.656 18.8251 20.618 19.1071 20.318C19.4651 19.932 19.9071 19.292 20.3571 18.662C20.6771 18.21 21.0811 18.154 21.5051 18.314C21.9371 18.464 24.2231 19.594 24.6931 19.828C25.1631 20.064 25.4731 20.176 25.5871 20.374C25.6991 20.572 25.6991 21.502 25.3131 22.594Z" fill="#FAFAFA"/>
	</symbol>

	<symbol viewBox="0 0 32 32" id="telegram" xmlns="http://www.w3.org/2000/svg">
		<circle cx="16" cy="16" r="16" fill="#039BE5"/>
		<path d="M10.3311 17.2564L12.5698 22.8529L15.4844 19.9383L20.4815 23.9102L24 8.08984L6 15.5875L10.3311 17.2564ZM18.8565 12.6288L13.347 17.6541L12.6607 20.2404L11.3931 17.0706L18.8565 12.6288Z" fill="white"/>
	</symbol>

	<symbol class="asvg-inline--fa afa-angle-left afa-w-8" viewBox="0 0 256 512" id="angle-left" xmlns="http://www.w3.org/2000/svg">
		<path d="M31.7 239l136-136c9.4-9.4 24.6-9.4 33.9 0l22.6 22.6c9.4 9.4 9.4 24.6 0 33.9L127.9 256l96.4 96.4c9.4 9.4 9.4 24.6 0 33.9L201.7 409c-9.4 9.4-24.6 9.4-33.9 0l-136-136c-9.5-9.4-9.5-24.6-.1-34z"/>
	</symbol>

	<symbol class="bsvg-inline--fa bfa-angle-right bfa-w-8" viewBox="0 0 256 512" id="angle-right" xmlns="http://www.w3.org/2000/svg">
		<path d="M224.3 273l-136 136c-9.4 9.4-24.6 9.4-33.9 0l-22.6-22.6c-9.4-9.4-9.4-24.6 0-33.9l96.4-96.4-96.4-96.4c-9.4-9.4-9.4-24.6 0-33.9L54.3 103c9.4-9.4 24.6-9.4 33.9 0l136 136c9.5 9.4 9.5 24.6.1 34z"/>
	</symbol>

	<symbol class="agsvg-inline--fa agfa-check agfa-w-16" viewBox="0 0 512 512" id="check" xmlns="http://www.w3.org/2000/svg">
		<path d="M173.898 439.404l-166.4-166.4c-9.997-9.997-9.997-26.206 0-36.204l36.203-36.204c9.997-9.998 26.207-9.998 36.204 0L192 312.69 432.095 72.596c9.997-9.997 26.207-9.997 36.204 0l36.203 36.204c9.997 9.997 9.997 26.206 0 36.204l-294.4 294.401c-9.998 9.997-26.207 9.997-36.204-.001z"/>
	</symbol>

	<symbol class="ahsvg-inline--fa ahfa-times ahfa-w-11" viewBox="0 0 352 512" id="cross" xmlns="http://www.w3.org/2000/svg">
		<path d="M242.72 256l100.07-100.07c12.28-12.28 12.28-32.19 0-44.48l-22.24-22.24c-12.28-12.28-32.19-12.28-44.48 0L176 189.28 75.93 89.21c-12.28-12.28-32.19-12.28-44.48 0L9.21 111.45c-12.28 12.28-12.28 32.19 0 44.48L109.28 256 9.21 356.07c-12.28 12.28-12.28 32.19 0 44.48l22.24 22.24c12.28 12.28 32.2 12.28 44.48 0L176 322.72l100.07 100.07c12.28 12.28 32.2 12.28 44.48 0l22.24-22.24c12.28-12.28 12.28-32.19 0-44.48L242.72 256z"/>
	</symbol>

</svg>