<svg width="38" height="35" fill="none" xmlns="http://www.w3.org/2000/svg"><path d="M9.064 3.932c-.7.442-1.415-.557-.715-.999C11.443.993 14.965 0 18.689 0 29.01 0 37.38 7.836 37.38 17.5S29.01 35 18.689 35C8.37 35 0 27.164 0 17.5c0-3.483 1.11-6.898 3.19-9.784.476-.655 1.543.018 1.068.674-1.95 2.705-2.97 5.848-2.97 9.11 0 8.998 7.792 16.294 17.401 16.294 9.61 0 17.402-7.296 17.402-16.294 0-8.998-7.792-16.294-17.402-16.294-3.46 0-6.748.923-9.625 2.726zm1.81 19.593c0-2.802 2.247-4.946 4.927-5.8-1.632-.942-2.634-2.6-2.634-4.404 0-2.853 2.479-5.17 5.522-5.17 3.044 0 5.522 2.317 5.522 5.17 0 1.804-1.001 3.462-2.633 4.403 2.691.859 4.927 3.013 4.927 5.801 0 2.796-5.492 3.324-7.816 3.324s-7.815-.528-7.815-3.324zM18.69 9.357c-2.34 0-4.23 1.77-4.23 3.964 0 2.191 1.89 3.962 4.23 3.962 2.34 0 4.23-1.77 4.23-3.962 0-2.194-1.89-3.964-4.23-3.964zm-6.523 14.168c0 1.76 5.007 2.115 6.523 2.115s6.524-.355 6.524-2.115c0-3.16-3.453-5.033-6.524-5.033-3.04 0-6.523 1.85-6.523 5.033z" fill="#C1A38B"/></svg>